<svg width="800" height="350" xmlns="http://www.w3.org/2000/svg" viewBox="0 0 800 350">
    <!-- Define a pattern for the grid with smaller boxes -->
    <defs>
        <pattern id="grid" width="10" height="10" patternUnits="userSpaceOnUse">
            <rect x="2" y="2" width="8" height="8" fill="#2b3137" rx="2" ry="2"/>
        </pattern>

        <!-- Define bullets -->
        <circle id="bullet1" cx="20" cy="160" r="5" fill="red">
            <animate attributeName="cy" from="160" to="-200" dur="0.5s" begin="0s" repeatCount="indefinite"/>
        </circle>

        <!-- Embed Spaceship SVG content -->
        <g id="spaceship" transform="translate(0.000000,32.000000) scale(0.100000,-0.100000)">
            <path d="M151 280 c0 -20 -6 -41 -13 -48 -7 -7 -9 -12 -5 -12 4 0 1 -15 -7
            -34 -8 -19 -12 -37 -10 -40 2 -3 1 -4 -2 -1 -4 2 -24 -5 -45 -16 l-39 -19 -2
            37 -1 38 -4 -35 c-3 -19 -9 -39 -14 -44 -14 -15 -11 -29 6 -22 19 7 77 -12 92
            -31 6 -8 9 -21 6 -29 -3 -9 2 -14 16 -14 25 0 26 7 4 32 -14 16 -14 18 0 18 8
            0 18 8 20 18 4 16 5 16 6 0 0 -10 8 -18 18 -18 15 0 15 -1 0 -18 -22 -25 -21
            -32 4 -32 14 0 19 5 16 14 -3 8 0 21 6 29 15 19 73 38 92 31 17 -7 20 7 6 22
            -5 5 -11 25 -14 44 l-4 35 -1 -38 -2 -37 -39 19 c-21 11 -41 18 -45 16 -3 -3
            -4 -2 -2 1 2 3 -2 21 -10 40 -8 19 -14 35 -13 36 0 2 -2 10 -5 18 -3 8 -7 29
            -9 45 -4 28 -4 28 -6 -5z m12 -127 c-3 -15 -1 -23 7 -23 10 0 10 -3 0 -15 -10
            -12 -16 -13 -27 -4 -10 9 -11 14 -2 20 7 4 9 14 6 23 -4 9 -4 23 0 32 9 24 24
            -5 16 -33z m-40 -63 c7 -29 1 -24 -17 11 -12 23 -12 28 -2 20 8 -7 16 -21 19
            -31z m81 10 c-17 -33 -27 -40 -17 -12 6 17 23 42 28 42 2 0 -3 -13 -11 -30z"/>
            <path d="M148 43 c7 -3 16 -2 19 1 4 3 -2 6 -13 5 -11 0 -14 -3 -6 -6z"/>
            fill="#D3D3D3"/> <!-- Light grey wing -->
        </g>
    </defs>

    <!-- Background rectangle with grid pattern -->
    <rect width="530" height="70" fill="url(#grid)" x="120" y="20"/>

    <!-- Green boxes with animations -->
    <rect x="152" y="22" width="8" height="8" fill="green" rx="2" ry="2">
        <animate 
            attributeName="opacity" 
            values="1;1;0;0;1;1" 
            keyTimes="0;0.034;0.07;0.28;0.3;1" 
            dur="15s" 
            begin="0s" 
            repeatCount="indefinite" />
    </rect>
    <rect x="192" y="42" width="8" height="8" fill="green" rx="2" ry="2">
        <animate attributeName="opacity" from="1" to="0" begin="1.2s" dur="0.5s" fill="freeze" />
        <animate attributeName="opacity" from="0" to="1" begin="4.2s" dur="0.5s" fill="freeze" />
    </rect>
    <rect x="232" y="62" width="8" height="8" fill="green" rx="2" ry="2">
        <animate attributeName="opacity" from="1" to="0" begin="1.6s" dur="0.5s" fill="freeze" />
        <animate attributeName="opacity" from="0" to="1" begin="4.4s" dur="0.5s" fill="freeze" />
    </rect>
    <rect x="272" y="32" width="8" height="8" fill="green" rx="2" ry="2">
        <animate attributeName="opacity" from="1" to="0" begin="2.1s" dur="0.5s" fill="freeze" />
        <animate attributeName="opacity" from="0" to="1" begin="4.7s" dur="0.5s" fill="freeze" />
    </rect>
    <rect x="312" y="32" width="8" height="8" fill="green" rx="2" ry="2">
        <animate attributeName="opacity" from="1" to="0" begin="2.7s" dur="0.5s" fill="freeze" />
        <animate attributeName="opacity" from="0" to="1" begin="4.9s" dur="0.5s" fill="freeze" />
    </rect>
    <rect x="332" y="42" width="8" height="8" fill="green" rx="2" ry="2">
        <animate attributeName="opacity" from="1" to="0" begin="3.2s" dur="0.5s" fill="freeze" />
        <animate attributeName="opacity" from="0" to="1" begin="5.1s" dur="0.5s" fill="freeze" />
    </rect>
    <rect x="362" y="72" width="8" height="8" fill="green" rx="2" ry="2">
        <animate attributeName="opacity" from="1" to="0" begin="3.7s" dur="0.5s" fill="freeze" />
        <animate attributeName="opacity" from="0" to="1" begin="5.3s" dur="0.5s" fill="freeze" />
    </rect>
    <rect x="412" y="62" width="8" height="8" fill="green" rx="2" ry="2">
        <animate attributeName="opacity" from="1" to="0" begin="4.3s" dur="0.5s" fill="freeze" />
        <animate attributeName="opacity" from="0" to="1" begin="5.5s" dur="0.5s" fill="freeze" />
    </rect>
    <rect x="462" y="32" width="8" height="8" fill="green" rx="2" ry="2">
        <animate attributeName="opacity" from="1" to="0" begin="4.8s" dur="0.5s" fill="freeze" />
        <animate attributeName="opacity" from="0" to="1" begin="5.8s" dur="0.5s" fill="freeze" />
    </rect>
    <rect x="492" y="42" width="8" height="8" fill="green" rx="2" ry="2">
        <animate attributeName="opacity" from="1" to="0" begin="5.2s" dur="0.5s" fill="freeze" />
        <animate attributeName="opacity" from="0" to="1" begin="11.9s" dur="0.5s" fill="freeze" />
    </rect>
    <rect x="512" y="62" width="8" height="8" fill="green" rx="2" ry="2">
        <animate attributeName="opacity" from="1" to="0" begin="5.6s" dur="0.5s" fill="freeze" />
        <animate attributeName="opacity" from="0" to="1" begin="11.6s" dur="0.5s" fill="freeze" />
    </rect>
    <rect x="532" y="52" width="8" height="8" fill="green" rx="2" ry="2">
        <animate attributeName="opacity" from="1" to="0" begin="6.1s" dur="0.5s" fill="freeze" />
        <animate attributeName="opacity" from="0" to="1" begin="11.3s" dur="0.5s" fill="freeze" />
    </rect>
    <rect x="582" y="22" width="8" height="8" fill="green" rx="2" ry="2">
        <animate attributeName="opacity" from="1" to="0" begin="6.7s" dur="0.5s" fill="freeze" />
        <animate attributeName="opacity" from="0" to="1" begin="10.9s" dur="0.5s" fill="freeze" />
    </rect>
    <rect x="622" y="32" width="8" height="8" fill="green" rx="2" ry="2">
        <animate attributeName="opacity" from="1" to="0" begin="7.2s" dur="0.5s" fill="freeze" />
        <animate attributeName="opacity" from="0" to="1" begin="10.5s" dur="0.5s" fill="freeze" />
    </rect>

    <!-- Spaceship image -->
    <use href="#spaceship" x="0" y="160" width="40" height="40"/>

    <!-- Path definition for the spaceship's motion -->
    <path id="path" d="
        M 100 50
        A 50 30 0 0 1 300 50
        A 50 30 0 0 0 500 50
        A 50 30 0 0 1 650 50
        A 50 20 0 1 1 500 50
        A 50 20 0 1 0 300 50
        A 50 20 0 1 1 100 50
        " fill="none" stroke="none"/>

    <!-- Spaceship movement animation -->
    <animateMotion href="#spaceship" dur="15s" repeatCount="indefinite">
        <mpath href="#path"/>
    </animateMotion>

    <!-- Continuous shooting effect -->
    <use href="#bullet1" x="0" y="0">
        <animateMotion dur="15s" repeatCount="indefinite">
            <mpath href="#path"/>
        </animateMotion>
    </use>
</svg>
