<svg width="800" height="350" xmlns="http://www.w3.org/2000/svg" xmlns:xlink="http://www.w3.org/1999/xlink" viewBox="0 0 800 350">   
    <defs>
        <!-- Define a pattern for the grid with smaller boxes -->
        <pattern id="grid" width="13" height="13" patternUnits="userSpaceOnUse">
            <rect x="2" y="2" width="10" height="10" fill="#151b23" rx="2.5" ry="2.5" stroke="#ffffff20" stroke-width="0.5"/>
        </pattern>

        

        <!-- Define bullets -->
        <circle id="bullet1" cx="-30" r="5" fill="red">
            <animate attributeName="cy" from="200" to="-200" dur="0.5s" begin="0s" repeatCount="indefinite"/>
        </circle>

        <!-- Define Spaceship SVG content with light grey color -->
        <g id="spaceship" transform="translate(0.000000,32.000000) scale(0.120000,-0.120000)">
            <path d="M151 280 c0 -20 -6 -41 -13 -48 -7 -7 -9 -12 -5 -12 4 0 1 -15 -7
            -34 -8 -19 -12 -37 -10 -40 2 -3 1 -4 -2 -1 -4 2 -24 -5 -45 -16 l-39 -19 -2
            37 -1 38 -4 -35 c-3 -19 -9 -39 -14 -44 -14 -15 -11 -29 6 -22 19 7 77 -12 92
            -31 6 -8 9 -21 6 -29 -3 -9 2 -14 16 -14 25 0 26 7 4 32 -14 16 -14 18 0 18 8
            0 18 8 20 18 4 16 5 16 6 0 0 -10 8 -18 18 -18 15 0 15 -1 0 -18 -22 -25 -21
            -32 4 -32 14 0 19 5 16 14 -3 8 0 21 6 29 15 19 73 38 92 31 17 -7 20 7 6 22
            -5 5 -11 25 -14 44 l-4 35 -1 -38 -2 -37 -39 19 c-21 11 -41 18 -45 16 -3 -3
            -4 -2 -2 1 2 3 -2 21 -10 40 -8 19 -14 35 -13 36 0 2 -2 10 -5 18 -3 8 -7 29
            -9 45 -4 28 -4 28 -6 -5z m12 -127 c-3 -15 -1 -23 7 -23 10 0 10 -3 0 -15 -10
            -12 -16 -13 -27 -4 -10 9 -11 14 -2 20 7 4 9 14 6 23 -4 9 -4 23 0 32 9 24 24
            -5 16 -33z m-40 -63 c7 -29 1 -24 -17 11 -12 23 -12 28 -2 20 8 -7 16 -21 19
            -31z m81 10 c-17 -33 -27 -40 -17 -12 6 17 23 42 28 42 2 0 -3 -13 -11 -30z"
            fill="#D3D3D3"/> <!-- Light grey body -->
        </g>

        <!-- Gradient for explosion effect -->
        <radialGradient id="explosionGradient" cx="50%" cy="50%" r="60%" fx="50%" fy="50%">
            <stop id="stop1" offset="0%" style="stop-color:white;stop-opacity:1" />
            <stop id="stop2" offset="30%" style="stop-color:yellow;stop-opacity:1" />
            <stop id="stop3" offset="60%" style="stop-color:orange;stop-opacity:0.8" />
            <stop id="stop4" offset="100%" style="stop-color:red;stop-opacity:0.6" />
        </radialGradient>

        <!-- Brighter explosion filter -->
        <filter id="explosionFilter" x="-50%" y="-50%" width="200%" height="200%">
            <feGaussianBlur in="SourceGraphic" stdDeviation="5" />
            <feComponentTransfer>
                <feFuncA type="linear" slope="1.2"/>
            </feComponentTransfer>
        </filter>

        <!-- Sound wave effect -->
        <filter id="soundWaveFilter" x="-50%" y="-50%" width="200%" height="200%">
            <feGaussianBlur in="SourceGraphic" stdDeviation="4" />
        </filter>
    </defs>

    <!-- CENTERED: Apply the pattern to cover the grid area with exact dimensions -->
    <rect width="689" height="93" fill="url(#grid)" x="52" y="12.5"/>

    <!-- Green boxes with animations - adjusted positions to match centered grid -->
    <rect x="64" y="26" width="10" height="10" fill="#39d353" rx="2" ry="2">
        <animate 
            attributeName="opacity" 
            values="1;1;0;0;1;1" 
            keyTimes="0;0.034;0.04;0.99;1;1" 
            dur="15s" 
            begin="0s" 
            repeatCount="indefinite" />
    </rect>
    
    <rect x="112" y="38" width="10" height="10" fill="#39d353" rx="2" ry="2">
        <animate 
            attributeName="opacity" 
            values="1;1;0;0;1;1" 
            keyTimes="0;0.07;0.08;0.985;1;1" 
            dur="15s" 
            begin="0s" 
            repeatCount="indefinite" />
    </rect>

    <!-- Spaceship image -->
    <use xlink:href="#spaceship" x="-50" y="200"/>

    <!-- Path definition for the spaceship's motion - CENTERED below grid -->
    <path id="path" d="
        M 100 50
        A 25 20 0 0 1 300 50
        A 70 20 0 0 0 550 50
        A 70 20 0 0 1 700 50
        A 70 20 0 1 1 550 50
        A 25 20 0 1 0 300 50
        A 70 20 0 1 1 100 50
        " fill="none" stroke="none"/>

    <!-- Spaceship movement animation -->
    <animateMotion xlink:href="#spaceship" dur="15s" repeatCount="indefinite">
        <mpath xlink:href="#path"/>
    </animateMotion>

    <!-- Continuous shooting effect -->
    <use xlink:href="#bullet1" x="0" y="0">
        <animateMotion dur="15s" repeatCount="indefinite">
            <mpath xlink:href="#path"/>
        </animateMotion>
    </use>

    <!-- Bullet definitions -->
    <defs>
        <!-- First Bullet -->
        <circle id="bullet1" cx="20" cy="160" r="5" fill="red" visibility="hidden">
            <!-- Animate the bullet to move upwards and hit the grid -->
            <animate attributeName="cy" from="160" to="-5" dur="0.5s" begin="3.5s" fill="freeze"/>
            <animate attributeName="visibility" values="hidden;visible;hidden" keyTimes="0;0.01;1" dur="0.5s" begin="3.5s"/>
        </circle>
    </defs>

</svg>
