<svg width="800" height="350" xmlns="http://www.w3.org/2000/svg" viewBox="0 0 800 350">
    <!-- Define a pattern for the grid with smaller boxes -->
    <defs>
        <pattern id="grid" width="10" height="10" patternUnits="userSpaceOnUse">
            <rect x="2" y="2" width="8" height="8" fill="#2b3137" rx="2" ry="2"/>
        </pattern>

        <!-- Define bullets -->
        <circle id="bullet1" cx="20" cy="160" r="5" fill="red">
            <animate attributeName="cy" from="160" to="-200" dur="0.5s" begin="0s" repeatCount="indefinite"/>
        </circle>
    </defs>

    <!-- Background rectangle with grid pattern -->
    <rect width="530" height="70" fill="url(#grid)" x="120" y="20"/>

    <!-- Green boxes with animations -->
    <!-- Row 1-7 (x=132-642) (y=22-82) -->
    <rect x="152" y="22" width="8" height="8" fill="green" rx="2" ry="2">
        <animate attributeName="opacity" values="1;1;0;0;1;1" keyTimes="0;0.034;0.07;0.28;0.3;1" dur="15s" begin="0s" repeatCount="indefinite" />
    </rect>
    <rect x="192" y="42" width="8" height="8" fill="green" rx="2" ry="2">
        <animate attributeName="opacity" from="1" to="0" begin="1.2s" dur="0.5s" fill="freeze" />
        <animate attributeName="opacity" from="0" to="1" begin="4.2s" dur="0.5s" fill="freeze" />
    </rect>
    <rect x="232" y="62" width="8" height="8" fill="green" rx="2" ry="2">
        <animate attributeName="opacity" from="1" to="0" begin="1.6s" dur="0.5s" fill="freeze" />
        <animate attributeName="opacity" from="0" to="1" begin="4.4s" dur="0.5s" fill="freeze" />
    </rect>
    <rect x="272" y="32" width="8" height="8" fill="green" rx="2" ry="2">
        <animate attributeName="opacity" from="1" to="0" begin="2.1s" dur="0.5s" fill="freeze" />
        <animate attributeName="opacity" from="0" to="1" begin="4.7s" dur="0.5s" fill="freeze" />
    </rect>
    <rect x="312" y="32" width="8" height="8" fill="green" rx="2" ry="2">
        <animate attributeName="opacity" from="1" to="0" begin="2.7s" dur="0.5s" fill="freeze" />
        <animate attributeName="opacity" from="0" to="1" begin="4.9s" dur="0.5s" fill="freeze" />
    </rect>
    <rect x="332" y="42" width="8" height="8" fill="green" rx="2" ry="2">
        <animate attributeName="opacity" from="1" to="0" begin="3.2s" dur="0.5s" fill="freeze" />
        <animate attributeName="opacity" from="0" to="1" begin="5.1s" dur="0.5s" fill="freeze" />
    </rect>
    <rect x="362" y="72" width="8" height="8" fill="green" rx="2" ry="2">
        <animate attributeName="opacity" from="1" to="0" begin="3.7s" dur="0.5s" fill="freeze" />
        <animate attributeName="opacity" from="0" to="1" begin="5.3s" dur="0.5s" fill="freeze" />
    </rect>
    <rect x="412" y="62" width="8" height="8" fill="green" rx="2" ry="2">
        <animate attributeName="opacity" from="1" to="0" begin="4.3s" dur="0.5s" fill="freeze" />
        <animate attributeName="opacity" from="0" to="1" begin="5.5s" dur="0.5s" fill="freeze" />
    </rect>
    <rect x="462" y="32" width="8" height="8" fill="green" rx="2" ry="2">
        <animate attributeName="opacity" from="1" to="0" begin="4.8s" dur="0.5s" fill="freeze" />
        <animate attributeName="opacity" from="0" to="1" begin="5.8s" dur="0.5s" fill="freeze" />
    </rect>
    <rect x="492" y="42" width="8" height="8" fill="green" rx="2" ry="2">
        <animate attributeName="opacity" from="1" to="0" begin="5.2s" dur="0.5s" fill="freeze" />
        <animate attributeName="opacity" from="0" to="1" begin="11.9s" dur="0.5s" fill="freeze" />
    </rect>
    <rect x="512" y="62" width="8" height="8" fill="green" rx="2" ry="2">
        <animate attributeName="opacity" from="1" to="0" begin="5.6s" dur="0.5s" fill="freeze" />
        <animate attributeName="opacity" from="0" to="1" begin="11.6s" dur="0.5s" fill="freeze" />
    </rect>
    <rect x="532" y="52" width="8" height="8" fill="green" rx="2" ry="2">
        <animate attributeName="opacity" from="1" to="0" begin="6.1s" dur="0.5s" fill="freeze" />
        <animate attributeName="opacity" from="0" to="1" begin="11.3s" dur="0.5s" fill="freeze" />
    </rect>
    <rect x="582" y="22" width="8" height="8" fill="green" rx="2" ry="2">
        <animate attributeName="opacity" from="1" to="0" begin="6.7s" dur="0.5s" fill="freeze" />
        <animate attributeName="opacity" from="0" to="1" begin="10.9s" dur="0.5s" fill="freeze" />
    </rect>
    <rect x="622" y="32" width="8" height="8" fill="green" rx="2" ry="2">
        <animate attributeName="opacity" from="1" to="0" begin="7.2s" dur="0.5s" fill="freeze" />
        <animate attributeName="opacity" from="0" to="1" begin="10.5s" dur="0.5s" fill="freeze" />
    </rect>

    <!-- Spaceship image -->
    <image id="spaceship" href="https://raw.githubusercontent.com/Alexis-Dim/Alexis-Dim/main/Spaceship.png" x="0" y="160" width="31" height="32"/>

    <!-- Path definition for the spaceship's motion -->
    <path id="path" d="
        M 100 50
        A 50 30 0 0 1 300 50
        A 50 30 0 0 0 500 50
        A 50 30 0 0 1 650 50
        A 50 20 0 1 1 500 50
        A 50 20 0 1 0 300 50
        A 50 20 0 1 1 100 50
        " fill="none" stroke="none"/>

    <!-- Spaceship movement animation -->
    <animateMotion href="#spaceship" dur="15s" repeatCount="indefinite">
        <mpath href="#path"/>
    </animateMotion>

    <!-- Continuous shooting effect -->
    <use href="#bullet1" x="0" y="0">
        <animateMotion dur="15s" repeatCount="indefinite">
            <mpath href="#path"/>
        </animateMotion>
    </use>
</svg>
