<?xml version="1.0" standalone="no"?>
<!DOCTYPE svg PUBLIC "-//W3C//DTD SVG 20010904//EN"
 "http://www.w3.org/TR/2001/REC-SVG-20010904/DTD/svg10.dtd">
<svg version="1.0" xmlns="http://www.w3.org/2000/svg"
 width="31.000000pt" height="32.000000pt" viewBox="0 0 31.000000 32.000000"
 preserveAspectRatio="xMidYMid meet">

<g transform="translate(0.000000,32.000000) scale(0.100000,-0.100000)"
fill="#000000" stroke="none">
<path d="M151 280 c0 -20 -6 -41 -13 -48 -7 -7 -9 -12 -5 -12 4 0 1 -15 -7
-34 -8 -19 -12 -37 -10 -40 2 -3 1 -4 -2 -1 -4 2 -24 -5 -45 -16 l-39 -19 -2
37 -1 38 -4 -35 c-3 -19 -9 -39 -14 -44 -14 -15 -11 -29 6 -22 19 7 77 -12 92
-31 6 -8 9 -21 6 -29 -3 -9 2 -14 16 -14 25 0 26 7 4 32 -14 16 -14 18 0 18 8
0 18 8 20 18 4 16 5 16 6 0 0 -10 8 -18 18 -18 15 0 15 -1 0 -18 -22 -25 -21
-32 4 -32 14 0 19 5 16 14 -3 8 0 21 6 29 15 19 73 38 92 31 17 -7 20 7 6 22
-5 5 -11 25 -14 44 l-4 35 -1 -38 -2 -37 -39 19 c-21 11 -41 18 -45 16 -3 -3
-4 -2 -2 1 2 3 -2 21 -10 40 -8 19 -14 35 -13 36 0 2 -2 10 -5 18 -3 8 -7 29
-9 45 -4 28 -4 28 -6 -5z m12 -127 c-3 -15 -1 -23 7 -23 10 0 10 -3 0 -15 -10
-12 -16 -13 -27 -4 -10 9 -11 14 -2 20 7 4 9 14 6 23 -4 9 -4 23 0 32 9 24 24
-5 16 -33z m-40 -63 c7 -29 1 -24 -17 11 -12 23 -12 28 -2 20 8 -7 16 -21 19
-31z m81 10 c-17 -33 -27 -40 -17 -12 6 17 23 42 28 42 2 0 -3 -13 -11 -30z"/>
<path d="M148 43 c7 -3 16 -2 19 1 4 3 -2 6 -13 5 -11 0 -14 -3 -6 -6z"/>
</g>
</svg>
